<?xml version="1.0" encoding="utf-8"?>
<!-- Generator: Adobe Illustrator 26.0.3, SVG Export Plug-In . SVG Version: 6.00 Build 0)  -->
<svg version="1.1" id="Layer_1" xmlns="http://www.w3.org/2000/svg" xmlns:xlink="http://www.w3.org/1999/xlink" x="0px" y="0px"
	 viewBox="0 0 201.25 100.1" style="enable-background:new 0 0 201.25 100.1;" xml:space="preserve">
<style type="text/css">
	.st0{fill:#22AAFF;}
</style>
<g>
	<path class="st0" d="M24.94,76.49V50.1h4.61c1.32,0,2.44,0.46,3.37,1.38c0.92,0.92,1.38,2.04,1.38,3.36v21.64H24.94z"/>
	<path class="st0" d="M69.17,76.49h-4.62c-1.32,0-2.4-0.42-3.23-1.25c-0.84-0.84-1.25-1.91-1.25-3.23V54.07
		c0-2.11-0.64-3.65-1.91-4.62c-1.28-0.97-2.7-1.45-4.29-1.45c-1.58,0-2.99,0.49-4.22,1.45c-1.23,0.97-1.85,2.51-1.85,4.62v22.42
		h-9.23V55.92c0-5.98,1.56-9.98,4.68-12c3.12-2.02,6.57-3.12,10.35-3.3c3.87,0,7.43,1.01,10.68,3.03c3.25,2.02,4.88,6.11,4.88,12.26
		V76.49z"/>
	<path class="st0" d="M73.19,76.49V40.35c0-3.16,0.83-5.54,2.51-7.12c1.58-1.49,4.17-2.24,7.78-2.24c0.88,0,1.58,0.05,2.11,0.13
		c0.96,0,1.71,0.05,2.24,0.13v7.25h-2.37c-1.23,0-2.11,0.18-2.64,0.53c-0.44,0.35-0.66,1.06-0.66,2.11v2.37h5.67v1.98
		c0,1.32-0.44,2.4-1.32,3.23c-0.88,0.83-1.89,1.25-3.03,1.25h-1.32v26.51H73.19z"/>
	<path class="st0" d="M113.32,65.68h6.54c-0.97,3.69-2.82,6.51-5.54,8.44c-2.73,2.02-6.16,3.03-10.29,3.03
		c-5.01,0-8.93-1.62-11.74-4.88c-2.81-3.16-4.22-7.69-4.22-13.58c0-5.62,1.36-10.02,4.09-13.19c2.81-3.25,6.73-4.88,11.74-4.88
		c5.28,0,9.36,1.58,12.27,4.75c2.81,3.26,4.22,7.78,4.22,13.59v0.92v0.53c0,0.44-0.05,0.75-0.13,0.92H97.43
		c0.09,2.73,0.75,4.75,1.98,6.06c1.14,1.41,2.86,2.13,5.15,2.11c3.87-0.04,5.1-1.82,5.34-2.11c0.28-0.35,0.42-0.61,0.99-1.05
		C111.45,65.9,112.27,65.68,113.32,65.68 M97.43,55.39h13.45c-0.18-2.37-0.79-4.13-1.84-5.27c-1.14-1.23-2.77-1.85-4.88-1.85
		c-1.94,0-3.52,0.62-4.75,1.85C98.18,51.35,97.52,53.11,97.43,55.39"/>
	<path class="st0" d="M147.37,74.38v-2.24c-1.58,2.46-3.72,4-6.4,4.62c-2.68,0.61-5.34,0.39-7.98-0.66
		c-2.64-1.05-4.9-3.01-6.79-5.87c-1.89-2.86-2.83-6.62-2.83-11.28c0-5.45,1.25-9.87,3.76-13.25c2.51-3.39,6.53-5.08,12.07-5.08
		c4.22,0,8.13,1.14,11.74,3.43c3.6,2.29,5.41,6.51,5.41,12.66v18.6c0,6.16-1.8,10.35-5.41,12.6c-3.61,2.24-6.89,3.3-11.11,3.3
		c-8.09,0-13.73-3.72-15.67-11.28h9.63c0.7,1.23,1.78,2.18,3.23,2.84c1.45,0.66,2.9,0.83,4.35,0.52c1.45-0.31,2.77-1.17,3.95-2.57
		C146.51,79.3,147.19,77.2,147.37,74.38 M132.34,59.21c0,6.07,1.76,9.43,5.28,10.09c3.52,0.66,6.11-0.15,7.78-2.44
		c0.79-0.97,1.36-2.48,1.71-4.55c0.35-2.06,0.37-4.11,0.07-6.13c-0.31-2.02-1.03-3.82-2.18-5.41c-1.14-1.58-2.81-2.37-5.01-2.37
		c-2.99,0-5.01,1.1-6.07,3.3C132.87,53.9,132.34,56.4,132.34,59.21"/>
	<path class="st0" d="M160.86,89.12v-7.49h2.51c1.76,0,3.14-0.42,4.15-1.25c1.01-0.83,1.21-2.18,0.59-4.02l-12.26-34.95H166
		l7.12,24.79l6.2-21.63c0.53-2.11,1.93-3.17,4.22-3.17h6.33l-13.45,39.96c-1.06,2.9-2.38,4.96-3.96,6.2
		c-1.58,1.06-4.17,1.58-7.78,1.58C164.42,89.15,161.12,89.12,160.86,89.12"/>
	<path class="st0" d="M29.32,42.98c-1.01,0-2.05-0.17-2.83-0.49c0.03,0.38,0.04,0.78,0.04,1.21c0,0.81,1.26,1.47,2.8,1.47
		c1.55,0,2.8-0.66,2.8-1.47c0-0.43,0.01-0.83,0.04-1.21C31.39,42.81,30.34,42.98,29.32,42.98"/>
	<path class="st0" d="M29.32,17.49c-0.33,0-0.61-0.27-0.61-0.61V9.5c0-0.33,0.27-0.6,0.61-0.6c0.33,0,0.61,0.27,0.61,0.6v7.39
		C29.93,17.22,29.66,17.49,29.32,17.49"/>
	<path class="st0" d="M29.32,17.49c-0.33,0-0.61-0.27-0.61-0.61V9.5c0-0.33,0.27-0.6,0.61-0.6c0.33,0,0.61,0.27,0.61,0.6v7.39
		C29.93,17.22,29.66,17.49,29.32,17.49"/>
	<path class="st0" d="M38.69,22.05c-0.17,0-0.34-0.08-0.47-0.22c-0.21-0.26-0.18-0.64,0.08-0.85l5.46-4.55
		c0.25-0.22,0.64-0.18,0.85,0.08c0.21,0.26,0.18,0.64-0.08,0.85l-5.46,4.55C38.96,22,38.82,22.05,38.69,22.05"/>
	<path class="st0" d="M46.58,33.36c-0.04,0-0.08,0-0.12-0.01l-5.43-1.06c-0.33-0.06-0.54-0.38-0.48-0.71
		c0.06-0.33,0.38-0.54,0.71-0.48l5.43,1.06c0.33,0.06,0.54,0.38,0.48,0.71C47.11,33.16,46.86,33.36,46.58,33.36"/>
	<path class="st0" d="M20.01,22.05c-0.14,0-0.27-0.05-0.39-0.14l-5.46-4.55c-0.26-0.21-0.29-0.6-0.08-0.85
		c0.21-0.26,0.59-0.29,0.85-0.08l5.46,4.55c0.26,0.21,0.29,0.59,0.08,0.85C20.36,21.98,20.19,22.05,20.01,22.05"/>
	<path class="st0" d="M17.69,26.82c-0.05,0-0.09-0.01-0.14-0.02l-2.57-0.61c-0.32-0.08-0.52-0.4-0.45-0.73
		c0.08-0.33,0.4-0.53,0.73-0.45l2.57,0.61c0.32,0.08,0.53,0.4,0.45,0.73C18.21,26.63,17.96,26.82,17.69,26.82"/>
	<path class="st0" d="M11.98,33.39c-0.28,0-0.54-0.2-0.59-0.49c-0.07-0.33,0.15-0.65,0.48-0.71l5.57-1.09
		c0.33-0.07,0.65,0.15,0.71,0.48c0.06,0.33-0.15,0.65-0.48,0.71l-5.57,1.09C12.06,33.39,12.02,33.39,11.98,33.39"/>
	<path class="st0" d="M24.1,18.45c-0.23,0-0.46-0.13-0.55-0.36l-0.95-2.15c-0.13-0.31,0-0.66,0.31-0.8c0.31-0.14,0.66,0,0.8,0.31
		l0.95,2.15c0.13,0.31,0,0.66-0.31,0.8C24.27,18.44,24.18,18.45,24.1,18.45"/>
	<path class="st0" d="M34.5,18.45c-0.09,0-0.19-0.02-0.28-0.07c-0.3-0.16-0.41-0.52-0.25-0.82l1.08-2.07
		c0.16-0.3,0.52-0.41,0.82-0.25c0.3,0.16,0.41,0.52,0.25,0.82l-1.08,2.07C34.93,18.33,34.72,18.45,34.5,18.45"/>
	<path class="st0" d="M40.97,26.55c-0.28,0-0.54-0.2-0.59-0.49c-0.07-0.33,0.15-0.65,0.48-0.71l1.99-0.39
		c0.33-0.07,0.65,0.15,0.71,0.48c0.06,0.33-0.15,0.65-0.48,0.71l-1.99,0.39C41.05,26.54,41.01,26.55,40.97,26.55"/>
	<path class="st0" d="M40.45,38.19c-0.14,0-0.28-0.05-0.39-0.15l-1.77-1.5c-0.25-0.22-0.29-0.6-0.07-0.85
		c0.22-0.25,0.6-0.29,0.85-0.07l1.77,1.51c0.26,0.22,0.29,0.6,0.07,0.85C40.79,38.12,40.62,38.19,40.45,38.19"/>
	<path class="st0" d="M18.26,38.31c-0.18,0-0.36-0.08-0.48-0.23c-0.21-0.26-0.16-0.64,0.11-0.85l1.83-1.42
		c0.27-0.2,0.65-0.16,0.85,0.11c0.2,0.26,0.16,0.64-0.11,0.85l-1.83,1.41C18.52,38.26,18.39,38.31,18.26,38.31"/>
	<path class="st0" d="M29.33,20.28c-0.63-0.03-8.4-0.18-8.4,8.54c0,6.77,4.64,6.54,5.47,12.83c0.55,0.32,1.57,0.61,2.92,0.61
		c1.36,0,2.4-0.29,2.94-0.62c0.83-6.27,5.47-6.05,5.47-12.81C37.73,20.11,29.97,20.26,29.33,20.28z"/>
</g>
</svg>
